<svg xmlns="http://www.w3.org/2000/svg" xmlns:xlink="http://www.w3.org/1999/xlink" viewBox="0 0 47.8 53.85"><defs><style>.cls-1{fill:#055d82;}.cls-2{fill:url(#linear-gradient);}</style><linearGradient id="linear-gradient" x1="12.8" y1="12.57" x2="34.08" y2="41.15" gradientUnits="userSpaceOnUse"><stop offset="0.02" stop-color="#53c3ee"/><stop offset="1" stop-color="#008cd2"/></linearGradient></defs><g id="Ebene_2" data-name="Ebene 2"><g id="eRecht24_Logo_Standard_Version" data-name="eRecht24 Logo Standard Version"><g id="Symbol"><path class="cls-1" d="M12.29,32a66.84,66.84,0,0,0-6.75,7.13C3.15,42.05-.1,46.67,0,50.24c.16,5.47,8.36,3.62,11.8,1.6a.09.09,0,0,0-.07-.16C8.9,52.5,3.47,53.49,4.63,49A17.21,17.21,0,0,1,7.34,44,55.55,55.55,0,0,1,14,36.66l1.55-1.43A24.87,24.87,0,0,1,12.29,32Z"/><path class="cls-1" d="M47.58,17.37c-1.25-3.69-7.44-2.14-10.11-1.28-6.14,2-11.83,5.48-17,9.25L19,26.4a22.82,22.82,0,0,0,3.49,3.17c2-1.44,4-2.81,6.14-4.07A48.76,48.76,0,0,1,37,21.31a13.26,13.26,0,0,1,5.43-1c4.86.62,0,7.85-2.28,10.81h0c-.15.19-.17.37,0,.23A34.23,34.23,0,0,0,44.11,27C46,24.59,48.57,20.65,47.58,17.37Z"/><path class="cls-2" d="M36.26,28.49a10.31,10.31,0,0,0-1.77-4.71A58.77,58.77,0,0,0,29.3,26.6l-.23.15c1.61,2,2.5,4.32,1.35,7.08a6.25,6.25,0,0,1-1.82,2.36A46.05,46.05,0,0,0,23,31.61C19.49,29,14.38,25.24,16.56,20a6.3,6.3,0,0,1,1.82-2.35,40.2,40.2,0,0,0,4.95,4.12c2-1.3,3.88-2.45,5.73-3.44-1.34-1-2.69-2-3.89-3-2.2-1.79-4.52-3.69-4.46-6.92a6.18,6.18,0,0,1,4.07-5.63,6.71,6.71,0,0,1,7,1.8.17.17,0,0,0,.27-.2A8.64,8.64,0,0,0,21.53.5a9.83,9.83,0,0,0-6.71,9.82,10.19,10.19,0,0,0,1.85,5.27,9.32,9.32,0,0,0-6,9.75c.6,6,6.83,9.73,11.08,13.17,2.21,1.79,4.53,3.69,4.46,6.92a6.13,6.13,0,0,1-4.07,5.63,6.72,6.72,0,0,1-7-1.8.16.16,0,0,0-.26.2,8.61,8.61,0,0,0,10.55,3.87,9.82,9.82,0,0,0,6.71-9.82,10,10,0,0,0-1.85-5.26A9.36,9.36,0,0,0,36.26,28.49Z"/></g></g></g></svg>